<svg viewBox="0 0 800 500" style="max-height:70vh;width:auto;display:block;margin:0 auto;letter-spacing:0" xmlns="http://www.w3.org/2000/svg">
  <!-- Background -->
  <rect width="800" height="500" fill="#1a1a2e"/>

  <!-- Title -->
  <text x="400" y="44" font-family="sans-serif" font-size="20" font-weight="bold" fill="#ffffff" text-anchor="middle">ツール使用の仕組み — シーケンス図</text>

  <!-- Participant labels -->
  <rect x="40" y="68" width="100" height="36" rx="8" fill="#1e3a5f" stroke="#60a5fa" stroke-width="2"/>
  <text x="90" y="90" font-family="sans-serif" font-size="13" font-weight="bold" fill="#60a5fa" text-anchor="middle">開発者</text>

  <rect x="210" y="68" width="120" height="36" rx="8" fill="#2d1b5e" stroke="#a78bfa" stroke-width="2"/>
  <text x="270" y="90" font-family="sans-serif" font-size="13" font-weight="bold" fill="#a78bfa" text-anchor="middle">Claude Code</text>

  <rect x="400" y="68" width="120" height="36" rx="8" fill="#3d1a3d" stroke="#f472b6" stroke-width="2"/>
  <text x="460" y="90" font-family="sans-serif" font-size="13" font-weight="bold" fill="#f472b6" text-anchor="middle">Claude API</text>

  <rect x="590" y="68" width="130" height="36" rx="8" fill="#1a3d32" stroke="#34d399" stroke-width="2"/>
  <text x="655" y="90" font-family="sans-serif" font-size="13" font-weight="bold" fill="#34d399" text-anchor="middle">ツール実行層</text>

  <!-- Lifelines -->
  <line x1="90" y1="104" x2="90" y2="460" stroke="#60a5fa" stroke-width="1" stroke-dasharray="4,4"/>
  <line x1="270" y1="104" x2="270" y2="460" stroke="#a78bfa" stroke-width="1" stroke-dasharray="4,4"/>
  <line x1="460" y1="104" x2="460" y2="460" stroke="#f472b6" stroke-width="1" stroke-dasharray="4,4"/>
  <line x1="655" y1="104" x2="655" y2="460" stroke="#34d399" stroke-width="1" stroke-dasharray="4,4"/>

  <!-- Step 1: User → Claude Code -->
  <line x1="90" y1="138" x2="262" y2="138" stroke="#60a5fa" stroke-width="2"/>
  <polygon points="260,132 272,138 260,144" fill="#60a5fa"/>
  <rect x="100" y="122" width="155" height="18" rx="3" fill="#1a1a2e"/>
  <text x="177" y="134" font-family="sans-serif" font-size="11" fill="#93c5fd" text-anchor="middle">① ユーザー指示（自然言語）</text>

  <!-- Step 2: Claude Code → Claude API -->
  <line x1="270" y1="168" x2="452" y2="168" stroke="#a78bfa" stroke-width="2"/>
  <polygon points="450,162 462,168 450,174" fill="#a78bfa"/>
  <rect x="278" y="152" width="172" height="18" rx="3" fill="#1a1a2e"/>
  <text x="364" y="164" font-family="sans-serif" font-size="11" fill="#c4b5fd" text-anchor="middle">② プロンプト + コンテキスト送信</text>

  <!-- Step 3: Claude API → Claude Code (tool_use) -->
  <line x1="460" y1="198" x2="278" y2="198" stroke="#f472b6" stroke-width="2" stroke-dasharray="6,3"/>
  <polygon points="280,192 268,198 280,204" fill="#f472b6"/>
  <rect x="278" y="182" width="178" height="18" rx="3" fill="#1a1a2e"/>
  <text x="367" y="194" font-family="sans-serif" font-size="11" fill="#f9a8d4" text-anchor="middle">③ tool_use ブロック返却</text>

  <!-- Step 4: Claude Code → Tool Layer -->
  <line x1="270" y1="228" x2="647" y2="228" stroke="#34d399" stroke-width="2"/>
  <polygon points="645,222 657,228 645,234" fill="#34d399"/>
  <rect x="310" y="212" width="195" height="18" rx="3" fill="#1a1a2e"/>
  <text x="407" y="224" font-family="sans-serif" font-size="11" fill="#6ee7b7" text-anchor="middle">④ ツール実行（Bash/Read/Write…）</text>

  <!-- Step 5: Tool → Claude Code (result) -->
  <line x1="655" y1="258" x2="278" y2="258" stroke="#34d399" stroke-width="2" stroke-dasharray="6,3"/>
  <polygon points="280,252 268,258 280,264" fill="#34d399"/>
  <rect x="310" y="242" width="195" height="18" rx="3" fill="#1a1a2e"/>
  <text x="407" y="254" font-family="sans-serif" font-size="11" fill="#a7f3d0" text-anchor="middle">⑤ 実行結果を返す</text>

  <!-- Step 6: Claude Code → Claude API (tool_result) -->
  <line x1="270" y1="288" x2="452" y2="288" stroke="#a78bfa" stroke-width="2"/>
  <polygon points="450,282 462,288 450,294" fill="#a78bfa"/>
  <rect x="278" y="272" width="172" height="18" rx="3" fill="#1a1a2e"/>
  <text x="364" y="284" font-family="sans-serif" font-size="11" fill="#c4b5fd" text-anchor="middle">⑥ tool_result を API に送信</text>

  <!-- Step 7: Claude API → Claude Code (next response) -->
  <line x1="460" y1="318" x2="278" y2="318" stroke="#f472b6" stroke-width="2" stroke-dasharray="6,3"/>
  <polygon points="280,312 268,318 280,324" fill="#f472b6"/>
  <rect x="278" y="302" width="178" height="18" rx="3" fill="#1a1a2e"/>
  <text x="367" y="314" font-family="sans-serif" font-size="11" fill="#f9a8d4" text-anchor="middle">⑦ 次の応答 or 完了メッセージ</text>

  <!-- Loop label -->
  <rect x="248" y="160" width="28" height="170" rx="4" fill="none" stroke="#a78bfa" stroke-width="1.5" stroke-dasharray="3,3"/>
  <text x="235" y="248" font-family="sans-serif" font-size="10" fill="#a78bfa" text-anchor="middle" transform="rotate(-90,235,248)">エージェントループ</text>

  <!-- Step 8: Claude Code → User -->
  <line x1="270" y1="358" x2="98" y2="358" stroke="#60a5fa" stroke-width="2" stroke-dasharray="6,3"/>
  <polygon points="100,352 88,358 100,364" fill="#60a5fa"/>
  <rect x="100" y="342" width="165" height="18" rx="3" fill="#1a1a2e"/>
  <text x="182" y="354" font-family="sans-serif" font-size="11" fill="#93c5fd" text-anchor="middle">⑧ 最終結果を表示</text>

  <!-- Bottom note -->
  <text x="400" y="430" font-family="sans-serif" font-size="12" fill="#fbbf24" text-anchor="middle">ループはストップ条件（完了/エラー/確認要求）まで継続</text>
</svg>
