<svg xmlns="http://www.w3.org/2000/svg" viewBox="0 0 800 500" style="max-height:70vh;width:auto;display:block;margin:0 auto;letter-spacing:0">
  <!-- Background -->
  <rect width="800" height="500" fill="#1a1a2e"/>

  <!-- Title -->
  <text x="400" y="40" text-anchor="middle" font-family="sans-serif" font-size="20" font-weight="bold" fill="#ffffff">マルチエージェント並列実行</text>

  <!-- Orchestrator -->
  <rect x="300" y="60" width="200" height="50" rx="8" fill="#4c1d95" stroke="#a78bfa" stroke-width="2"/>
  <text x="400" y="91" text-anchor="middle" font-family="sans-serif" font-size="15" font-weight="bold" fill="#a78bfa">Orchestrator</text>

  <!-- Arrows from orchestrator to agents -->
  <!-- Arrow to Agent 1 -->
  <line x1="270" y1="95" x2="160" y2="175" stroke="#a78bfa" stroke-width="2"/>
  <polygon points="160,175 155,160 170,163" fill="#a78bfa"/>
  <!-- Arrow to Agent 2 -->
  <line x1="340" y1="110" x2="290" y2="175" stroke="#a78bfa" stroke-width="2"/>
  <polygon points="290,175 282,162 296,161" fill="#a78bfa"/>
  <!-- Arrow to Agent 3 -->
  <line x1="460" y1="110" x2="510" y2="175" stroke="#a78bfa" stroke-width="2"/>
  <polygon points="510,175 504,161 518,162" fill="#a78bfa"/>
  <!-- Arrow to Agent 4 -->
  <line x1="530" y1="95" x2="640" y2="175" stroke="#a78bfa" stroke-width="2"/>
  <polygon points="640,175 630,163 645,160" fill="#a78bfa"/>

  <!-- Agent boxes -->
  <!-- Agent 1 -->
  <rect x="80" y="180" width="150" height="55" rx="8" fill="#1e3a5f" stroke="#60a5fa" stroke-width="2"/>
  <text x="155" y="205" text-anchor="middle" font-family="sans-serif" font-size="13" font-weight="bold" fill="#60a5fa">Agent 1</text>
  <text x="155" y="223" text-anchor="middle" font-family="sans-serif" font-size="11" fill="#93c5fd">feature-auth.ts</text>

  <!-- Agent 2 -->
  <rect x="255" y="180" width="150" height="55" rx="8" fill="#1e3a5f" stroke="#60a5fa" stroke-width="2"/>
  <text x="330" y="205" text-anchor="middle" font-family="sans-serif" font-size="13" font-weight="bold" fill="#60a5fa">Agent 2</text>
  <text x="330" y="223" text-anchor="middle" font-family="sans-serif" font-size="11" fill="#93c5fd">feature-api.ts</text>

  <!-- Agent 3 -->
  <rect x="430" y="180" width="150" height="55" rx="8" fill="#1e3a5f" stroke="#60a5fa" stroke-width="2"/>
  <text x="505" y="205" text-anchor="middle" font-family="sans-serif" font-size="13" font-weight="bold" fill="#60a5fa">Agent 3</text>
  <text x="505" y="223" text-anchor="middle" font-family="sans-serif" font-size="11" fill="#93c5fd">feature-ui.tsx</text>

  <!-- Agent 4 -->
  <rect x="605" y="180" width="150" height="55" rx="8" fill="#1e3a5f" stroke="#60a5fa" stroke-width="2"/>
  <text x="680" y="205" text-anchor="middle" font-family="sans-serif" font-size="13" font-weight="bold" fill="#60a5fa">Agent 4</text>
  <text x="680" y="223" text-anchor="middle" font-family="sans-serif" font-size="11" fill="#93c5fd">tests/*.test.ts</text>

  <!-- Progress bars -->
  <!-- Agent 1 progress -->
  <rect x="85" y="250" width="140" height="12" rx="6" fill="#0f172a"/>
  <rect x="85" y="250" width="112" height="12" rx="6" fill="#34d399"/>
  <text x="155" y="280" text-anchor="middle" font-family="sans-serif" font-size="10" fill="#34d399">80%</text>

  <!-- Agent 2 progress -->
  <rect x="260" y="250" width="140" height="12" rx="6" fill="#0f172a"/>
  <rect x="260" y="250" width="84" height="12" rx="6" fill="#34d399"/>
  <text x="330" y="280" text-anchor="middle" font-family="sans-serif" font-size="10" fill="#34d399">60%</text>

  <!-- Agent 3 progress -->
  <rect x="435" y="250" width="140" height="12" rx="6" fill="#0f172a"/>
  <rect x="435" y="250" width="98" height="12" rx="6" fill="#fbbf24"/>
  <text x="505" y="280" text-anchor="middle" font-family="sans-serif" font-size="10" fill="#fbbf24">70%</text>

  <!-- Agent 4 progress -->
  <rect x="610" y="250" width="140" height="12" rx="6" fill="#0f172a"/>
  <rect x="610" y="250" width="42" height="12" rx="6" fill="#f87171"/>
  <text x="680" y="280" text-anchor="middle" font-family="sans-serif" font-size="10" fill="#f87171">30%</text>

  <!-- Parallel execution label -->
  <rect x="50" y="300" width="700" height="2" fill="#4c1d95" opacity="0.6"/>
  <text x="400" y="330" text-anchor="middle" font-family="sans-serif" font-size="13" fill="#c4b5fd">全エージェントが独立ファイルを同時処理 — ファイル競合なし</text>

  <!-- Results merge -->
  <rect x="270" y="355" width="260" height="50" rx="8" fill="#0f3460" stroke="#34d399" stroke-width="2"/>
  <text x="400" y="376" text-anchor="middle" font-family="sans-serif" font-size="13" font-weight="bold" fill="#34d399">Merge Results</text>
  <text x="400" y="394" text-anchor="middle" font-family="sans-serif" font-size="11" fill="#6ee7b7">PR / Commit</text>

  <!-- Arrows to merge -->
  <line x1="155" y1="295" x2="310" y2="355" stroke="#34d399" stroke-width="1.5"/>
  <polygon points="310,355 302,342 316,341" fill="#34d399"/>
  <line x1="330" y1="295" x2="360" y2="355" stroke="#34d399" stroke-width="1.5"/>
  <polygon points="360,355 353,342 366,342" fill="#34d399"/>
  <line x1="505" y1="295" x2="440" y2="355" stroke="#34d399" stroke-width="1.5"/>
  <polygon points="440,355 434,342 447,342" fill="#34d399"/>
  <line x1="680" y1="295" x2="490" y2="355" stroke="#34d399" stroke-width="1.5"/>
  <polygon points="490,355 482,342 496,341" fill="#34d399"/>

  <!-- Time comparison -->
  <text x="400" y="440" text-anchor="middle" font-family="sans-serif" font-size="13" fill="#a78bfa">逐次実行: 4x時間 → 並列実行: 1x時間（理論値）</text>
  <text x="400" y="465" text-anchor="middle" font-family="sans-serif" font-size="11" fill="#7c3aed">mode: "bypassPermissions" が必須</text>
</svg>
