<svg xmlns="http://www.w3.org/2000/svg" viewBox="0 0 800 500" style="max-height:70vh;max-width:100%;display:block;margin:0 auto;">
  <!-- Background -->
  <rect width="800" height="500" fill="#1a1a2e"/>

  <!-- Title -->
  <text x="400" y="38" text-anchor="middle" font-family="sans-serif" font-size="22" font-weight="bold" fill="#ffffff">Pulumi vs Terraform 比較マトリクス</text>

  <!-- Table header -->
  <rect x="40" y="60" width="720" height="44" rx="6" fill="#2d1f4e"/>
  <text x="200" y="88" text-anchor="middle" font-family="sans-serif" font-size="14" font-weight="bold" fill="#a78bfa">比較項目</text>
  <text x="450" y="88" text-anchor="middle" font-family="sans-serif" font-size="14" font-weight="bold" fill="#60a5fa">Terraform / OpenTofu</text>
  <text x="670" y="88" text-anchor="middle" font-family="sans-serif" font-size="14" font-weight="bold" fill="#34d399">Pulumi</text>

  <!-- Divider lines -->
  <line x1="340" y1="60" x2="340" y2="460" stroke="#374151" stroke-width="1"/>
  <line x1="560" y1="60" x2="560" y2="460" stroke="#374151" stroke-width="1"/>

  <!-- Row 1: Language -->
  <rect x="40" y="104" width="720" height="44" rx="0" fill="#111827"/>
  <text x="200" y="131" text-anchor="middle" font-family="sans-serif" font-size="13" fill="#e5e7eb">言語</text>
  <text x="450" y="131" text-anchor="middle" font-family="sans-serif" font-size="12" fill="#93c5fd">HCL (独自DSL)</text>
  <text x="670" y="131" text-anchor="middle" font-family="sans-serif" font-size="12" fill="#6ee7b7">Python / TS / Go / .NET</text>

  <!-- Row 2: Learning Curve -->
  <rect x="40" y="148" width="720" height="44" rx="0" fill="#0d1117"/>
  <text x="200" y="175" text-anchor="middle" font-family="sans-serif" font-size="13" fill="#e5e7eb">学習コスト</text>
  <text x="450" y="175" text-anchor="middle" font-family="sans-serif" font-size="12" fill="#93c5fd">低 (HCL シンプル)</text>
  <text x="670" y="175" text-anchor="middle" font-family="sans-serif" font-size="12" fill="#6ee7b7">中〜高 (汎用言語知識要)</text>

  <!-- Row 3: State -->
  <rect x="40" y="192" width="720" height="44" rx="0" fill="#111827"/>
  <text x="200" y="219" text-anchor="middle" font-family="sans-serif" font-size="13" fill="#e5e7eb">State 管理</text>
  <text x="450" y="219" text-anchor="middle" font-family="sans-serif" font-size="12" fill="#93c5fd">tfstate (ローカル/S3等)</text>
  <text x="670" y="219" text-anchor="middle" font-family="sans-serif" font-size="12" fill="#6ee7b7">Pulumi Cloud / セルフホスト</text>

  <!-- Row 4: Ecosystem -->
  <rect x="40" y="236" width="720" height="44" rx="0" fill="#0d1117"/>
  <text x="200" y="263" text-anchor="middle" font-family="sans-serif" font-size="13" fill="#e5e7eb">エコシステム</text>
  <text x="450" y="263" text-anchor="middle" font-family="sans-serif" font-size="12" fill="#93c5fd">広大 (Registry 充実)</text>
  <text x="670" y="263" text-anchor="middle" font-family="sans-serif" font-size="12" fill="#6ee7b7">成長中 (TF プロバイダー流用可)</text>

  <!-- Row 5: Testing -->
  <rect x="40" y="280" width="720" height="44" rx="0" fill="#111827"/>
  <text x="200" y="307" text-anchor="middle" font-family="sans-serif" font-size="13" fill="#e5e7eb">テスト</text>
  <text x="450" y="307" text-anchor="middle" font-family="sans-serif" font-size="12" fill="#93c5fd">terraform test (1.6+)</text>
  <text x="670" y="307" text-anchor="middle" font-family="sans-serif" font-size="12" fill="#6ee7b7">言語ネイティブ (unittest等)</text>

  <!-- Row 6: Drift Detection -->
  <rect x="40" y="324" width="720" height="44" rx="0" fill="#0d1117"/>
  <text x="200" y="351" text-anchor="middle" font-family="sans-serif" font-size="13" fill="#e5e7eb">ドリフト検知</text>
  <text x="450" y="351" text-anchor="middle" font-family="sans-serif" font-size="12" fill="#93c5fd">terraform plan</text>
  <text x="670" y="351" text-anchor="middle" font-family="sans-serif" font-size="12" fill="#6ee7b7">pulumi refresh</text>

  <!-- Row 7: Commercial -->
  <rect x="40" y="368" width="720" height="44" rx="0" fill="#111827"/>
  <text x="200" y="395" text-anchor="middle" font-family="sans-serif" font-size="13" fill="#e5e7eb">ライセンス</text>
  <text x="450" y="395" text-anchor="middle" font-family="sans-serif" font-size="12" fill="#93c5fd">BSL (TF) / MPL (OTF)</text>
  <text x="670" y="395" text-anchor="middle" font-family="sans-serif" font-size="12" fill="#6ee7b7">Apache 2.0</text>

  <!-- Bottom recommendation -->
  <rect x="40" y="420" width="720" height="60" rx="8" fill="#1f2d3d"/>
  <text x="400" y="443" text-anchor="middle" font-family="sans-serif" font-size="13" font-weight="bold" fill="#f59e0b">選択基準</text>
  <text x="270" y="463" text-anchor="middle" font-family="sans-serif" font-size="12" fill="#bfdbfe">チームに運用経験あり → Terraform/OpenTofu</text>
  <text x="590" y="463" text-anchor="middle" font-family="sans-serif" font-size="12" fill="#a7f3d0">プログラミング重視 → Pulumi</text>

  <!-- Row borders -->
  <rect x="40" y="60" width="720" height="404" rx="6" fill="none" stroke="#374151" stroke-width="1"/>
  <line x1="40" y1="104" x2="760" y2="104" stroke="#374151" stroke-width="1"/>
  <line x1="40" y1="148" x2="760" y2="148" stroke="#374151" stroke-width="1"/>
  <line x1="40" y1="192" x2="760" y2="192" stroke="#374151" stroke-width="1"/>
  <line x1="40" y1="236" x2="760" y2="236" stroke="#374151" stroke-width="1"/>
  <line x1="40" y1="280" x2="760" y2="280" stroke="#374151" stroke-width="1"/>
  <line x1="40" y1="324" x2="760" y2="324" stroke="#374151" stroke-width="1"/>
  <line x1="40" y1="368" x2="760" y2="368" stroke="#374151" stroke-width="1"/>
</svg>
