<svg xmlns="http://www.w3.org/2000/svg" viewBox="0 0 800 500" style="max-height:70vh;width:auto;display:block;margin:0 auto;letter-spacing:0">
  <rect width="800" height="500" fill="#1a1a2e"/>

  <text x="400" y="36" text-anchor="middle" font-size="20" font-weight="bold" fill="#ffffff" font-family="sans-serif">Supply Chain Security 全体像</text>

  <!-- Stage 1: Code -->
  <rect x="20" y="75" width="120" height="70" rx="8" fill="#1e3a5f" stroke="#60a5fa" stroke-width="2"/>
  <text x="80" y="102" text-anchor="middle" font-size="13" font-weight="bold" fill="#60a5fa" font-family="sans-serif">Code</text>
  <text x="80" y="118" text-anchor="middle" font-size="10" fill="#94a3b8" font-family="sans-serif">SAST / Secrets</text>
  <text x="80" y="133" text-anchor="middle" font-size="10" fill="#94a3b8" font-family="sans-serif">Scan (Gitleaks)</text>

  <!-- Arrow -->
  <line x1="140" y1="110" x2="158" y2="110" stroke="#60a5fa" stroke-width="2"/>
  <polygon points="158,110 148,105 148,115" fill="#60a5fa"/>

  <!-- Stage 2: Build -->
  <rect x="158" y="75" width="120" height="70" rx="8" fill="#2d1b4e" stroke="#a78bfa" stroke-width="2"/>
  <text x="218" y="102" text-anchor="middle" font-size="13" font-weight="bold" fill="#a78bfa" font-family="sans-serif">Build</text>
  <text x="218" y="118" text-anchor="middle" font-size="10" fill="#94a3b8" font-family="sans-serif">Reproducible</text>
  <text x="218" y="133" text-anchor="middle" font-size="10" fill="#94a3b8" font-family="sans-serif">Builds / SBOM</text>

  <!-- Arrow -->
  <line x1="278" y1="110" x2="296" y2="110" stroke="#a78bfa" stroke-width="2"/>
  <polygon points="296,110 286,105 286,115" fill="#a78bfa"/>

  <!-- Stage 3: Image -->
  <rect x="296" y="75" width="120" height="70" rx="8" fill="#1a3a2a" stroke="#34d399" stroke-width="2"/>
  <text x="356" y="102" text-anchor="middle" font-size="13" font-weight="bold" fill="#34d399" font-family="sans-serif">Image</text>
  <text x="356" y="118" text-anchor="middle" font-size="10" fill="#94a3b8" font-family="sans-serif">Trivy / Grype</text>
  <text x="356" y="133" text-anchor="middle" font-size="10" fill="#94a3b8" font-family="sans-serif">Vuln Scan</text>

  <!-- Arrow -->
  <line x1="416" y1="110" x2="434" y2="110" stroke="#34d399" stroke-width="2"/>
  <polygon points="434,110 424,105 424,115" fill="#34d399"/>

  <!-- Stage 4: Sign -->
  <rect x="434" y="75" width="120" height="70" rx="8" fill="#2d2a16" stroke="#fbbf24" stroke-width="2"/>
  <text x="494" y="102" text-anchor="middle" font-size="13" font-weight="bold" fill="#fbbf24" font-family="sans-serif">Sign</text>
  <text x="494" y="118" text-anchor="middle" font-size="10" fill="#94a3b8" font-family="sans-serif">Cosign / Sigstore</text>
  <text x="494" y="133" text-anchor="middle" font-size="10" fill="#94a3b8" font-family="sans-serif">Keyless Signing</text>

  <!-- Arrow -->
  <line x1="554" y1="110" x2="572" y2="110" stroke="#fbbf24" stroke-width="2"/>
  <polygon points="572,110 562,105 562,115" fill="#fbbf24"/>

  <!-- Stage 5: Deploy -->
  <rect x="572" y="75" width="120" height="70" rx="8" fill="#3d1515" stroke="#f87171" stroke-width="2"/>
  <text x="632" y="102" text-anchor="middle" font-size="13" font-weight="bold" fill="#f87171" font-family="sans-serif">Deploy</text>
  <text x="632" y="118" text-anchor="middle" font-size="10" fill="#94a3b8" font-family="sans-serif">Policy Gates</text>
  <text x="632" y="133" text-anchor="middle" font-size="10" fill="#94a3b8" font-family="sans-serif">Admission Control</text>

  <!-- Divider -->
  <line x1="30" y1="175" x2="770" y2="175" stroke="#334155" stroke-width="1" stroke-dasharray="6,4"/>

  <!-- Tools row -->
  <text x="400" y="200" text-anchor="middle" font-size="14" font-weight="bold" fill="#ffffff" font-family="sans-serif">主要ツールエコシステム</text>

  <!-- Tool boxes row 1 -->
  <rect x="30" y="215" width="110" height="50" rx="6" fill="#16213e" stroke="#60a5fa" stroke-width="1"/>
  <text x="85" y="236" text-anchor="middle" font-size="11" font-weight="bold" fill="#60a5fa" font-family="sans-serif">Sigstore</text>
  <text x="85" y="253" text-anchor="middle" font-size="10" fill="#94a3b8" font-family="sans-serif">署名・検証基盤</text>

  <rect x="155" y="215" width="110" height="50" rx="6" fill="#16213e" stroke="#a78bfa" stroke-width="1"/>
  <text x="210" y="236" text-anchor="middle" font-size="11" font-weight="bold" fill="#a78bfa" font-family="sans-serif">in-toto</text>
  <text x="210" y="253" text-anchor="middle" font-size="10" fill="#94a3b8" font-family="sans-serif">サプライチェーン証明</text>

  <rect x="280" y="215" width="110" height="50" rx="6" fill="#16213e" stroke="#34d399" stroke-width="1"/>
  <text x="335" y="236" text-anchor="middle" font-size="11" font-weight="bold" fill="#34d399" font-family="sans-serif">SLSA</text>
  <text x="335" y="253" text-anchor="middle" font-size="10" fill="#94a3b8" font-family="sans-serif">成熟度フレームワーク</text>

  <rect x="405" y="215" width="110" height="50" rx="6" fill="#16213e" stroke="#fbbf24" stroke-width="1"/>
  <text x="460" y="236" text-anchor="middle" font-size="11" font-weight="bold" fill="#fbbf24" font-family="sans-serif">Rekor</text>
  <text x="460" y="253" text-anchor="middle" font-size="10" fill="#94a3b8" font-family="sans-serif">透明性ログ</text>

  <rect x="530" y="215" width="110" height="50" rx="6" fill="#16213e" stroke="#f87171" stroke-width="1"/>
  <text x="585" y="236" text-anchor="middle" font-size="11" font-weight="bold" fill="#f87171" font-family="sans-serif">Fulcio</text>
  <text x="585" y="253" text-anchor="middle" font-size="10" fill="#94a3b8" font-family="sans-serif">短命証明書CA</text>

  <rect x="655" y="215" width="110" height="50" rx="6" fill="#16213e" stroke="#60a5fa" stroke-width="1"/>
  <text x="710" y="236" text-anchor="middle" font-size="11" font-weight="bold" fill="#60a5fa" font-family="sans-serif">Syft / Grype</text>
  <text x="710" y="253" text-anchor="middle" font-size="10" fill="#94a3b8" font-family="sans-serif">SBOM/脆弱性スキャン</text>

  <!-- SLSA Levels -->
  <rect x="30" y="295" width="740" height="80" rx="8" fill="#16213e" stroke="#334155" stroke-width="1"/>
  <text x="400" y="318" text-anchor="middle" font-size="13" font-weight="bold" fill="#ffffff" font-family="sans-serif">SLSA レベル</text>

  <rect x="50" y="328" width="130" height="34" rx="5" fill="#334155"/>
  <text x="115" y="350" text-anchor="middle" font-size="11" fill="#94a3b8" font-family="sans-serif">L1: ビルド文書化</text>

  <rect x="200" y="328" width="130" height="34" rx="5" fill="#1e3a5f"/>
  <text x="265" y="350" text-anchor="middle" font-size="11" fill="#60a5fa" font-family="sans-serif">L2: ホスト型サービス</text>

  <rect x="350" y="328" width="130" height="34" rx="5" fill="#2d1b4e"/>
  <text x="415" y="350" text-anchor="middle" font-size="11" fill="#a78bfa" font-family="sans-serif">L3: 検証可能なビルド</text>

  <rect x="500" y="328" width="130" height="34" rx="5" fill="#1a3a2a"/>
  <text x="565" y="350" text-anchor="middle" font-size="11" fill="#34d399" font-family="sans-serif">L4: 二人制 / 隔離環境</text>

  <!-- Policy enforcement box -->
  <rect x="30" y="395" width="740" height="60" rx="8" fill="#2d2a16" stroke="#fbbf24" stroke-width="1"/>
  <text x="400" y="420" text-anchor="middle" font-size="13" font-weight="bold" fill="#fbbf24" font-family="sans-serif">Policy Enforcement</text>
  <text x="400" y="442" text-anchor="middle" font-size="11" fill="#94a3b8" font-family="sans-serif">署名未検証イメージのデプロイを拒否 — Kyverno / OPA Gatekeeper</text>
</svg>
