<svg xmlns="http://www.w3.org/2000/svg" viewBox="0 0 800 500" style="max-height:70vh;max-width:100%;display:block;margin:0 auto;">
  <!-- Background -->
  <rect width="800" height="500" fill="#1a1a2e"/>

  <!-- Title -->
  <text x="400" y="38" text-anchor="middle" font-family="sans-serif" font-size="22" font-weight="bold" fill="#ffffff">Terraform → OpenTofu 移行ロードマップ</text>

  <!-- Timeline bar -->
  <rect x="60" y="75" width="680" height="8" rx="4" fill="#374151"/>

  <!-- Phase 1 -->
  <circle cx="140" cy="79" r="14" fill="#a78bfa" stroke="#1a1a2e" stroke-width="2"/>
  <text x="140" y="84" text-anchor="middle" font-family="sans-serif" font-size="11" font-weight="bold" fill="#1a1a2e">1</text>
  <rect x="70" y="110" width="140" height="140" rx="8" fill="#3b1f6e"/>
  <text x="140" y="132" text-anchor="middle" font-family="sans-serif" font-size="13" font-weight="bold" fill="#a78bfa">Phase 1</text>
  <text x="140" y="150" text-anchor="middle" font-family="sans-serif" font-size="12" fill="#e2d9f3">現状評価</text>
  <line x1="120" y1="162" x2="160" y2="162" stroke="#6b7280" stroke-width="1"/>
  <text x="140" y="180" text-anchor="middle" font-family="sans-serif" font-size="11" fill="#c4b5fd">バージョン確認</text>
  <text x="140" y="198" text-anchor="middle" font-family="sans-serif" font-size="11" fill="#c4b5fd">プロバイダー一覧</text>
  <text x="140" y="216" text-anchor="middle" font-family="sans-serif" font-size="11" fill="#c4b5fd">依存関係マップ</text>
  <text x="140" y="234" text-anchor="middle" font-family="sans-serif" font-size="11" fill="#9ca3af">〜 Week 1</text>

  <!-- Arrow 1→2 -->
  <line x1="210" y1="79" x2="265" y2="79" stroke="#60a5fa" stroke-width="2"/>
  <polygon points="265,73 277,79 265,85" fill="#60a5fa"/>

  <!-- Phase 2 -->
  <circle cx="300" cy="79" r="14" fill="#60a5fa" stroke="#1a1a2e" stroke-width="2"/>
  <text x="300" y="84" text-anchor="middle" font-family="sans-serif" font-size="11" font-weight="bold" fill="#1a1a2e">2</text>
  <rect x="230" y="110" width="140" height="140" rx="8" fill="#1e3a5f"/>
  <text x="300" y="132" text-anchor="middle" font-family="sans-serif" font-size="13" font-weight="bold" fill="#60a5fa">Phase 2</text>
  <text x="300" y="150" text-anchor="middle" font-family="sans-serif" font-size="12" fill="#e2d9f3">テスト環境移行</text>
  <line x1="280" y1="162" x2="320" y2="162" stroke="#6b7280" stroke-width="1"/>
  <text x="300" y="180" text-anchor="middle" font-family="sans-serif" font-size="11" fill="#bfdbfe">OpenTofu インストール</text>
  <text x="300" y="198" text-anchor="middle" font-family="sans-serif" font-size="11" fill="#bfdbfe">State 互換確認</text>
  <text x="300" y="216" text-anchor="middle" font-family="sans-serif" font-size="11" fill="#bfdbfe">CI/CD 更新</text>
  <text x="300" y="234" text-anchor="middle" font-family="sans-serif" font-size="11" fill="#9ca3af">Week 2-3</text>

  <!-- Arrow 2→3 -->
  <line x1="370" y1="79" x2="425" y2="79" stroke="#34d399" stroke-width="2"/>
  <polygon points="425,73 437,79 425,85" fill="#34d399"/>

  <!-- Phase 3 -->
  <circle cx="460" cy="79" r="14" fill="#34d399" stroke="#1a1a2e" stroke-width="2"/>
  <text x="460" y="84" text-anchor="middle" font-family="sans-serif" font-size="11" font-weight="bold" fill="#1a1a2e">3</text>
  <rect x="390" y="110" width="140" height="140" rx="8" fill="#1a3a2e"/>
  <text x="460" y="132" text-anchor="middle" font-family="sans-serif" font-size="13" font-weight="bold" fill="#34d399">Phase 3</text>
  <text x="460" y="150" text-anchor="middle" font-family="sans-serif" font-size="12" fill="#e2d9f3">ステージング検証</text>
  <line x1="440" y1="162" x2="480" y2="162" stroke="#6b7280" stroke-width="1"/>
  <text x="460" y="180" text-anchor="middle" font-family="sans-serif" font-size="11" fill="#a7f3d0">プロバイダー互換テスト</text>
  <text x="460" y="198" text-anchor="middle" font-family="sans-serif" font-size="11" fill="#a7f3d0">Plan/Apply 比較</text>
  <text x="460" y="216" text-anchor="middle" font-family="sans-serif" font-size="11" fill="#a7f3d0">チームトレーニング</text>
  <text x="460" y="234" text-anchor="middle" font-family="sans-serif" font-size="11" fill="#9ca3af">Week 4-5</text>

  <!-- Arrow 3→4 -->
  <line x1="530" y1="79" x2="585" y2="79" stroke="#f59e0b" stroke-width="2"/>
  <polygon points="585,73 597,79 585,85" fill="#f59e0b"/>

  <!-- Phase 4 -->
  <circle cx="620" cy="79" r="14" fill="#f59e0b" stroke="#1a1a2e" stroke-width="2"/>
  <text x="620" y="84" text-anchor="middle" font-family="sans-serif" font-size="11" font-weight="bold" fill="#1a1a2e">4</text>
  <rect x="550" y="110" width="140" height="140" rx="8" fill="#2d1f0a"/>
  <text x="620" y="132" text-anchor="middle" font-family="sans-serif" font-size="13" font-weight="bold" fill="#f59e0b">Phase 4</text>
  <text x="620" y="150" text-anchor="middle" font-family="sans-serif" font-size="12" fill="#e2d9f3">本番移行</text>
  <line x1="600" y1="162" x2="640" y2="162" stroke="#6b7280" stroke-width="1"/>
  <text x="620" y="180" text-anchor="middle" font-family="sans-serif" font-size="11" fill="#fde68a">Blue/Green 切替</text>
  <text x="620" y="198" text-anchor="middle" font-family="sans-serif" font-size="11" fill="#fde68a">ロールバック準備</text>
  <text x="620" y="216" text-anchor="middle" font-family="sans-serif" font-size="11" fill="#fde68a">監視強化</text>
  <text x="620" y="234" text-anchor="middle" font-family="sans-serif" font-size="11" fill="#9ca3af">Week 6+</text>

  <!-- Key differences section -->
  <rect x="60" y="280" width="680" height="90" rx="8" fill="#111827"/>
  <text x="400" y="304" text-anchor="middle" font-family="sans-serif" font-size="13" font-weight="bold" fill="#a78bfa">Terraform vs OpenTofu — 主な違い</text>
  <text x="160" y="328" text-anchor="middle" font-family="sans-serif" font-size="12" fill="#60a5fa">ライセンス</text>
  <text x="160" y="348" text-anchor="middle" font-family="sans-serif" font-size="11" fill="#e5e7eb">BSL → MPL-2.0</text>
  <text x="360" y="328" text-anchor="middle" font-family="sans-serif" font-size="12" fill="#34d399">互換性</text>
  <text x="360" y="348" text-anchor="middle" font-family="sans-serif" font-size="11" fill="#e5e7eb">State / HCL 互換</text>
  <text x="560" y="328" text-anchor="middle" font-family="sans-serif" font-size="12" fill="#f59e0b">コミュニティ</text>
  <text x="560" y="348" text-anchor="middle" font-family="sans-serif" font-size="11" fill="#e5e7eb">Linux Foundation傘下</text>
  <text x="700" y="328" text-anchor="middle" font-family="sans-serif" font-size="12" fill="#f87171">差異</text>
  <text x="700" y="348" text-anchor="middle" font-family="sans-serif" font-size="11" fill="#e5e7eb">新機能・CLI差分</text>

  <!-- Risk indicators -->
  <rect x="60" y="395" width="680" height="80" rx="8" fill="#0d1117"/>
  <text x="400" y="418" text-anchor="middle" font-family="sans-serif" font-size="13" font-weight="bold" fill="#f59e0b">移行リスク管理</text>
  <circle cx="115" cy="448" r="6" fill="#34d399"/>
  <text x="145" y="453" font-family="sans-serif" font-size="11" fill="#e5e7eb">低: State ファイル形式</text>
  <circle cx="300" cy="448" r="6" fill="#f59e0b"/>
  <text x="330" y="453" font-family="sans-serif" font-size="11" fill="#e5e7eb">中: プロバイダー互換性</text>
  <circle cx="495" cy="448" r="6" fill="#f87171"/>
  <text x="525" y="453" font-family="sans-serif" font-size="11" fill="#e5e7eb">高: カスタムプロバイダー</text>
  <text x="400" y="470" text-anchor="middle" font-family="sans-serif" font-size="11" fill="#9ca3af">→ tofu コマンドは terraform と同等の構文を維持</text>
</svg>
