<svg xmlns="http://www.w3.org/2000/svg" viewBox="0 0 800 500" style="max-height:70vh;width:auto;display:block;margin:0 auto;letter-spacing:0">
  <rect width="800" height="500" fill="#1a1a2e"/>
  <text x="400" y="28" text-anchor="middle" fill="#a78bfa" font-size="14" font-weight="bold" font-family="sans-serif">ArgoCD アーキテクチャ</text>

  <!-- ArgoCD boundary -->
  <rect x="160" y="50" width="480" height="320" rx="16" fill="#1e1a30" stroke="#a78bfa" stroke-width="2" stroke-dasharray="8,4"/>
  <text x="400" y="75" text-anchor="middle" fill="#a78bfa" font-size="12" font-family="sans-serif" opacity="0.8">ArgoCD (クラスタ内)</text>

  <!-- API Server -->
  <rect x="195" y="90" width="150" height="60" rx="10" fill="#2d1b69" stroke="#a78bfa" stroke-width="2"/>
  <text x="270" y="122" text-anchor="middle" fill="#c4b5fd" font-size="12" font-weight="bold" font-family="sans-serif">API Server</text>
  <text x="270" y="140" text-anchor="middle" fill="#d1d5db" font-size="10" font-family="sans-serif">REST / gRPC</text>

  <!-- Repo Server -->
  <rect x="455" y="90" width="150" height="60" rx="10" fill="#1a2e4a" stroke="#60a5fa" stroke-width="2"/>
  <text x="530" y="122" text-anchor="middle" fill="#93c5fd" font-size="12" font-weight="bold" font-family="sans-serif">Repo Server</text>
  <text x="530" y="140" text-anchor="middle" fill="#d1d5db" font-size="10" font-family="sans-serif">Git clone / render</text>

  <!-- Application Controller -->
  <rect x="250" y="210" width="300" height="60" rx="10" fill="#1a3a2e" stroke="#34d399" stroke-width="2"/>
  <text x="400" y="243" text-anchor="middle" fill="#6ee7b7" font-size="12" font-weight="bold" font-family="sans-serif">Application Controller</text>
  <text x="400" y="260" text-anchor="middle" fill="#d1d5db" font-size="10" font-family="sans-serif">Reconcile / Sync / Health Check</text>

  <!-- Redis Cache -->
  <rect x="195" y="305" width="150" height="50" rx="10" fill="#2e1a1a" stroke="#f472b6" stroke-width="1.5"/>
  <text x="270" y="333" text-anchor="middle" fill="#f9a8d4" font-size="12" font-weight="bold" font-family="sans-serif">Redis Cache</text>
  <text x="270" y="348" text-anchor="middle" fill="#d1d5db" font-size="10" font-family="sans-serif">状態キャッシュ</text>

  <!-- Dex (OIDC) -->
  <rect x="455" y="305" width="150" height="50" rx="10" fill="#2e2a1a" stroke="#f59e0b" stroke-width="1.5"/>
  <text x="530" y="333" text-anchor="middle" fill="#fcd34d" font-size="12" font-weight="bold" font-family="sans-serif">Dex (OIDC)</text>
  <text x="530" y="348" text-anchor="middle" fill="#d1d5db" font-size="10" font-family="sans-serif">SSO 認証</text>

  <!-- Internal arrows -->
  <!-- API Server ↔ App Controller -->
  <line x1="320" y1="150" x2="330" y2="210" stroke="#a78bfa" stroke-width="1.5"/>
  <polygon points="326,204 330,216 334,204" fill="#a78bfa"/>
  <!-- Repo Server ↔ App Controller -->
  <line x1="490" y1="150" x2="465" y2="210" stroke="#60a5fa" stroke-width="1.5"/>
  <polygon points="462,204 465,216 469,204" fill="#60a5fa"/>
  <!-- App Controller ↔ Redis -->
  <line x1="330" y1="270" x2="290" y2="305" stroke="#f472b6" stroke-width="1.5"/>
  <polygon points="286,299 290,311 294,299" fill="#f472b6"/>
  <!-- API Server ↔ Dex -->
  <line x1="345" y1="150" x2="480" y2="305" stroke="#f59e0b" stroke-width="1.5" stroke-dasharray="4,3" opacity="0.6"/>

  <!-- External: Git Repo -->
  <rect x="545" y="400" width="150" height="55" rx="10" fill="#1e2a4a" stroke="#60a5fa" stroke-width="2"/>
  <text x="620" y="425" text-anchor="middle" fill="#60a5fa" font-size="12" font-weight="bold" font-family="sans-serif">Git Repository</text>
  <text x="620" y="443" text-anchor="middle" fill="#d1d5db" font-size="10" font-family="sans-serif">Manifests / Helm</text>
  <line x1="590" y1="400" x2="555" y2="150" stroke="#60a5fa" stroke-width="1.5" stroke-dasharray="5,4"/>
  <polygon points="552,144 555,156 559,144" fill="#60a5fa"/>

  <!-- External: K8s API -->
  <rect x="100" y="400" width="150" height="55" rx="10" fill="#1a3a2e" stroke="#34d399" stroke-width="2"/>
  <text x="175" y="425" text-anchor="middle" fill="#34d399" font-size="12" font-weight="bold" font-family="sans-serif">K8s API Server</text>
  <text x="175" y="443" text-anchor="middle" fill="#d1d5db" font-size="10" font-family="sans-serif">リソース適用</text>
  <line x1="210" y1="400" x2="355" y2="270" stroke="#34d399" stroke-width="1.5" stroke-dasharray="5,4"/>
  <polygon points="353,262 357,274 361,262" fill="#34d399"/>

  <!-- External: User/kubectl -->
  <rect x="20" y="100" width="130" height="55" rx="10" fill="#2a1a4a" stroke="#a78bfa" stroke-width="1.5"/>
  <text x="85" y="125" text-anchor="middle" fill="#c4b5fd" font-size="12" font-weight="bold" font-family="sans-serif">User / CLI</text>
  <text x="85" y="143" text-anchor="middle" fill="#d1d5db" font-size="10" font-family="sans-serif">Web UI / argocd</text>
  <line x1="150" y1="127" x2="195" y2="120" stroke="#a78bfa" stroke-width="1.5"/>
  <polygon points="190,114 202,120 190,126" fill="#a78bfa"/>
</svg>
