<svg xmlns="http://www.w3.org/2000/svg" viewBox="0 0 800 500" style="max-height:70vh;max-width:100%;display:block;margin:0 auto;">
  <!-- Background -->
  <rect width="800" height="500" fill="#1a1a2e"/>

  <!-- Title -->
  <text x="400" y="38" text-anchor="middle" font-family="sans-serif" font-size="22" font-weight="bold" fill="#ffffff">Terraform State 管理: S3 + DynamoDB</text>

  <!-- === TOP: Developers / CI ===-->
  <rect x="80" y="60" width="120" height="50" rx="8" fill="#3b1f6e"/>
  <text x="140" y="82" text-anchor="middle" font-family="sans-serif" font-size="13" fill="#a78bfa">開発者</text>
  <text x="140" y="100" text-anchor="middle" font-family="sans-serif" font-size="11" fill="#c4b5fd">terraform apply</text>

  <rect x="330" y="60" width="140" height="50" rx="8" fill="#1e3a5f"/>
  <text x="400" y="82" text-anchor="middle" font-family="sans-serif" font-size="13" fill="#60a5fa">CI/CD Pipeline</text>
  <text x="400" y="100" text-anchor="middle" font-family="sans-serif" font-size="11" fill="#bfdbfe">GitHub Actions</text>

  <rect x="600" y="60" width="120" height="50" rx="8" fill="#1a3a2e"/>
  <text x="660" y="82" text-anchor="middle" font-family="sans-serif" font-size="13" fill="#34d399">Terraform CLI</text>
  <text x="660" y="100" text-anchor="middle" font-family="sans-serif" font-size="11" fill="#a7f3d0">plan / apply</text>

  <!-- Arrows from dev and CI/CD to TF CLI -->
  <line x1="200" y1="85" x2="598" y2="85" stroke="#6b7280" stroke-width="1.5"/>
  <polygon points="598,79 610,85 598,91" fill="#6b7280"/>
  <line x1="470" y1="85" x2="598" y2="85" stroke="#6b7280" stroke-width="1.5"/>

  <!-- Backend config -->
  <line x1="660" y1="110" x2="660" y2="165" stroke="#34d399" stroke-width="2"/>
  <polygon points="653,165 660,177 667,165" fill="#34d399"/>

  <!-- Backend box -->
  <rect x="190" y="177" width="440" height="70" rx="8" fill="#111827"/>
  <rect x="190" y="177" width="440" height="7" rx="4" fill="#60a5fa"/>
  <text x="410" y="205" text-anchor="middle" font-family="sans-serif" font-size="14" font-weight="bold" fill="#60a5fa">Remote Backend 設定</text>
  <text x="410" y="228" text-anchor="middle" font-family="sans-serif" font-size="12" fill="#e5e7eb">backend "s3" &#123; bucket, key, region, dynamodb_table &#125;</text>

  <!-- Two boxes: S3 and DynamoDB -->
  <!-- Arrow to S3 -->
  <line x1="300" y1="247" x2="240" y2="300" stroke="#f59e0b" stroke-width="2"/>
  <polygon points="233,296 240,310 247,298" fill="#f59e0b"/>

  <!-- Arrow to DynamoDB -->
  <line x1="520" y1="247" x2="570" y2="300" stroke="#f87171" stroke-width="2"/>
  <polygon points="563,297 570,310 577,298" fill="#f87171"/>

  <!-- S3 box -->
  <rect x="80" y="310" width="280" height="110" rx="10" fill="#2d2010"/>
  <rect x="80" y="310" width="280" height="8" rx="4" fill="#f59e0b"/>
  <text x="220" y="336" text-anchor="middle" font-family="sans-serif" font-size="14" font-weight="bold" fill="#f59e0b">S3 Bucket</text>
  <text x="220" y="358" text-anchor="middle" font-family="sans-serif" font-size="12" fill="#fde68a">terraform.tfstate 保存</text>
  <text x="220" y="378" text-anchor="middle" font-family="sans-serif" font-size="12" fill="#fde68a">バージョニング有効化</text>
  <text x="220" y="398" text-anchor="middle" font-family="sans-serif" font-size="12" fill="#fde68a">暗号化 (SSE-KMS)</text>
  <text x="220" y="416" text-anchor="middle" font-family="sans-serif" font-size="11" fill="#9ca3af">パブリックアクセスブロック</text>

  <!-- DynamoDB box -->
  <rect x="440" y="310" width="280" height="110" rx="10" fill="#2d1515"/>
  <rect x="440" y="310" width="280" height="8" rx="4" fill="#f87171"/>
  <text x="580" y="336" text-anchor="middle" font-family="sans-serif" font-size="14" font-weight="bold" fill="#f87171">DynamoDB Table</text>
  <text x="580" y="358" text-anchor="middle" font-family="sans-serif" font-size="12" fill="#fca5a5">State ロック管理</text>
  <text x="580" y="378" text-anchor="middle" font-family="sans-serif" font-size="12" fill="#fca5a5">LockID (パーティションキー)</text>
  <text x="580" y="398" text-anchor="middle" font-family="sans-serif" font-size="12" fill="#fca5a5">同時実行競合防止</text>
  <text x="580" y="416" text-anchor="middle" font-family="sans-serif" font-size="11" fill="#9ca3af">PAY_PER_REQUEST モード推奨</text>

  <!-- Lock flow annotation -->
  <rect x="80" y="440" width="640" height="44" rx="8" fill="#0d1117"/>
  <text x="400" y="457" text-anchor="middle" font-family="sans-serif" font-size="12" fill="#a78bfa">ロックフロー:</text>
  <text x="400" y="475" text-anchor="middle" font-family="sans-serif" font-size="11" fill="#e5e7eb">apply 開始 → DynamoDB にロック取得 → S3 で state 読書き → ロック解放</text>
</svg>
