<svg xmlns="http://www.w3.org/2000/svg" viewBox="0 0 800 380" style="max-height:70vh;width:auto;display:block;margin:0 auto;letter-spacing:0">
  <rect width="800" height="380" fill="#1a1a2e"/>
  <text x="400" y="32" fill="#ffffff" font-size="17" font-family="sans-serif" text-anchor="middle" font-weight="bold">ATC 自動列車制御システムの流れ</text>
  <!-- boxes -->
  <rect x="30" y="70" width="140" height="60" rx="8" fill="#16213e" stroke="#f9a825" stroke-width="2"/>
  <text x="100" y="97" fill="#f9a825" font-size="13" font-family="sans-serif" text-anchor="middle" font-weight="bold">軌道回路</text>
  <text x="100" y="115" fill="#ffffff" font-size="11" font-family="sans-serif" text-anchor="middle">列車位置検知</text>
  <!-- arrow -->
  <line x1="170" y1="100" x2="210" y2="100" stroke="#f9a825" stroke-width="2"/>
  <polygon points="210,94 222,100 210,106" fill="#f9a825"/>
  <rect x="222" y="70" width="140" height="60" rx="8" fill="#16213e" stroke="#f9a825" stroke-width="2"/>
  <text x="292" y="97" fill="#f9a825" font-size="13" font-family="sans-serif" text-anchor="middle" font-weight="bold">速度照査</text>
  <text x="292" y="115" fill="#ffffff" font-size="11" font-family="sans-serif" text-anchor="middle">先行距離計算</text>
  <!-- arrow -->
  <line x1="362" y1="100" x2="402" y2="100" stroke="#f9a825" stroke-width="2"/>
  <polygon points="402,94 414,100 402,106" fill="#f9a825"/>
  <rect x="414" y="70" width="140" height="60" rx="8" fill="#16213e" stroke="#f9a825" stroke-width="2"/>
  <text x="484" y="97" fill="#f9a825" font-size="13" font-family="sans-serif" text-anchor="middle" font-weight="bold">速度指令</text>
  <text x="484" y="115" fill="#ffffff" font-size="11" font-family="sans-serif" text-anchor="middle">運転台へ送信</text>
  <!-- arrow -->
  <line x1="554" y1="100" x2="594" y2="100" stroke="#f9a825" stroke-width="2"/>
  <polygon points="594,94 606,100 594,106" fill="#f9a825"/>
  <rect x="606" y="70" width="140" height="60" rx="8" fill="#16213e" stroke="#e91e63" stroke-width="2"/>
  <text x="676" y="97" fill="#e91e63" font-size="13" font-family="sans-serif" text-anchor="middle" font-weight="bold">自動ブレーキ</text>
  <text x="676" y="115" fill="#ffffff" font-size="11" font-family="sans-serif" text-anchor="middle">超過時は強制</text>
  <!-- lower section: DS-ATC for Shinkansen -->
  <rect x="200" y="200" width="400" height="80" rx="10" fill="#16213e" stroke="#e91e63" stroke-width="2"/>
  <text x="400" y="228" fill="#e91e63" font-size="14" font-family="sans-serif" text-anchor="middle" font-weight="bold">新幹線 DS-ATC</text>
  <text x="400" y="250" fill="#ffffff" font-size="12" font-family="sans-serif" text-anchor="middle">15秒ごとに速度指令を更新</text>
  <text x="400" y="268" fill="#aaaaaa" font-size="11" font-family="sans-serif" text-anchor="middle">時速285kmを秒単位で制御</text>
  <!-- connecting arrow down -->
  <line x1="484" y1="130" x2="484" y2="195" stroke="#e91e63" stroke-width="1.5" stroke-dasharray="4,3"/>
  <line x1="484" y1="195" x2="420" y2="195" stroke="#e91e63" stroke-width="1.5" stroke-dasharray="4,3"/>
  <polygon points="414,189 426,195 414,201" fill="#e91e63"/>
  <text x="400" y="350" fill="#888888" font-size="11" font-family="sans-serif" text-anchor="middle">山手線: 最短2分間隔運行 — ATCなしでは実現不可能</text>
</svg>